<svg id="Capa_1" enable-background="new 0 0 512 512" height="512" viewBox="0 0 512 512" width="512" xmlns="http://www.w3.org/2000/svg"><g><g><g><g><g><g><path d="m316 212h-120c-8.284 0-15-6.716-15-15v-10c0-41.355 33.645-75 75-75s75 33.645 75 75v10c0 8.284-6.716 15-15 15z" fill="#f498c6"/></g></g><path d="m316 212c8.284 0 15-6.716 15-15v-10c0-41.355-33.645-75-75-75v100z" fill="#df5ccb"/><g><g><path d="m135 170h-120c-8.284 0-15-6.716-15-15v-10c0-41.355 33.645-75 75-75s75 33.645 75 75v10c0 8.284-6.716 15-15 15z" fill="#ffda44"/></g></g><path d="m135 170c8.284 0 15-6.716 15-15v-10c0-41.355-33.645-75-75-75v100z" fill="#ff9f22"/><g><g><g><g><path d="m497 170h-120c-8.284 0-15-6.716-15-15v-10c0-41.355 33.645-75 75-75s75 33.645 75 75v10c0 8.284-6.716 15-15 15z" fill="#44ffe8"/></g></g></g></g><path d="m497 170c8.284 0 15-6.716 15-15v-10c0-41.355-33.645-75-75-75v100z" fill="#00b4bc"/><g><path d="m256 132c-24.813 0-45-20.187-45-45s20.187-45 45-45 45 20.187 45 45-20.187 45-45 45z" fill="#ffdecf"/></g><path d="m256 42v90c24.813 0 45-20.187 45-45s-20.187-45-45-45z" fill="#ffcdbe"/><g><path d="m437 90c-24.813 0-45-20.187-45-45s20.187-45 45-45 45 20.187 45 45-20.187 45-45 45z" fill="#ffdecf"/></g><path d="m437 0v90c24.813 0 45-20.187 45-45s-20.187-45-45-45z" fill="#ffcdbe"/></g></g><g><g><g><path d="m75 90c-24.813 0-45-20.187-45-45s20.187-45 45-45 45 20.187 45 45-20.187 45-45 45z" fill="#ffdecf"/></g><path d="m75 0v90c24.813 0 45-20.187 45-45s-20.187-45-45-45z" fill="#ffcdbe"/></g></g></g><g><path d="m448.589 512c-12.885 0-25.307-3.858-35.924-11.158l-63.771-43.842h-185.788l-63.771 43.842c-10.617 7.3-23.039 11.158-35.924 11.158-34.965 0-63.411-28.446-63.411-63.411 0-18.937 3.607-37.437 10.722-54.987l51.594-127.266c9.688-23.896 32.609-39.336 58.393-39.336 21.801 0 41.743 11.02 53.345 29.477 2.174 3.458 5.91 5.523 9.995 5.523h143.902c4.085 0 7.821-2.064 9.995-5.522 11.602-18.458 31.544-29.478 53.345-29.478 25.784 0 48.705 15.44 58.393 39.335l51.594 127.267c7.115 17.55 10.722 36.05 10.722 54.987 0 34.965-28.446 63.411-63.411 63.411z" fill="#0a789b"/><path d="m501.278 393.602-51.594-127.267c-9.688-23.895-32.609-39.335-58.393-39.335-21.801 0-41.743 11.02-53.345 29.478-2.174 3.458-5.91 5.522-9.995 5.522h-71.951v195h92.894l63.771 43.842c10.617 7.299 23.04 11.158 35.924 11.158 34.965 0 63.411-28.446 63.411-63.411 0-18.937-3.607-37.437-10.722-54.987z" fill="#08475e"/><circle cx="342" cy="343" fill="#ff9f22" r="15"/><circle cx="402" cy="343" fill="#ff9f22" r="15"/><path d="m170 328h-15v-15c0-8.284-6.716-15-15-15s-15 6.716-15 15v15h-15c-8.284 0-15 6.716-15 15s6.716 15 15 15h15v15c0 8.284 6.716 15 15 15s15-6.716 15-15v-15h15c8.284 0 15-6.716 15-15s-6.716-15-15-15z" fill="#08475e"/><circle cx="190" cy="447" fill="#ffda44" r="35"/><circle cx="322" cy="447" fill="#ff9f22" r="35"/></g></g></svg>