<?xml version="1.0" encoding="iso-8859-1"?>
<!-- Generator: Adobe Illustrator 19.0.0, SVG Export Plug-In . SVG Version: 6.00 Build 0)  -->
<svg version="1.1" id="Capa_1" xmlns="http://www.w3.org/2000/svg" xmlns:xlink="http://www.w3.org/1999/xlink" x="0px" y="0px"
	 viewBox="0 0 319.65 319.65" style="enable-background:new 0 0 319.65 319.65;" xml:space="preserve">
<g>
	<path style="fill:#4A566E;" d="M157.425,71.99c-53.6-4.8-94.8-40.8-130,22.4c-14.8,26.4-25.2,71.6-27.2,108c-4,88.4,46,64,92.8,20
		c29.2-27.6,104.4-27.6,133.6,0c46.8,44.4,96.8,68.4,92.8-20c-1.6-36.4-12-81.2-27.2-108c-35.2-63.2-76.4-26.8-130-22.4H157.425z"/>
	<path style="fill:#FFFFFF;" d="M81.825,98.79L81.825,98.79c9.2,0,16.4,7.6,16.4,16.4v5.6h5.6c9.2,0,16.4,7.6,16.4,16.4l0,0
		c0,9.2-7.6,16.4-16.4,16.4h-5.6v6c0,9.2-7.6,16.4-16.4,16.4l0,0c-9.2,0-16.4-7.6-16.4-16.4v-5.6h-5.6c-9.2,0-16.4-7.6-16.4-16.4
		l0,0c0-9.2,7.6-16.4,16.4-16.4h5.6v-5.6C65.425,105.99,73.025,98.79,81.825,98.79z"/>
	<path style="fill:#3ABFC8;" d="M247.425,137.19c0-8,6.4-14.4,14.4-14.4s14.4,6.4,14.4,14.4s-6.4,14.4-14.4,14.4
		C253.825,151.99,247.425,145.19,247.425,137.19z M232.225,93.19c8,0,14.4,6.4,14.4,14.4s-6.4,14.4-14.4,14.4s-14.4-6.4-14.4-14.4
		C217.825,99.99,224.225,93.19,232.225,93.19z M188.225,137.19c0-8,6.4-14.4,14.4-14.4s14.4,6.4,14.4,14.4s-6.4,14.4-14.4,14.4
		C194.625,151.99,188.225,145.19,188.225,137.19z M232.225,152.39c8,0,14.4,6.4,14.4,14.4c0,8-6.4,14.4-14.4,14.4
		s-14.4-6.4-14.4-14.4C217.825,158.79,224.225,152.39,232.225,152.39z"/>
</g>
<g>
</g>
<g>
</g>
<g>
</g>
<g>
</g>
<g>
</g>
<g>
</g>
<g>
</g>
<g>
</g>
<g>
</g>
<g>
</g>
<g>
</g>
<g>
</g>
<g>
</g>
<g>
</g>
<g>
</g>
</svg>
