<svg height="512" viewBox="0 0 64 64" width="512" xmlns="http://www.w3.org/2000/svg"><g id="megaphone-marketing-seo-ad-sound"><path d="m15.23 49.33-5-8.66 22.61-23.72a2 2 0 0 1 3.18.37l12.32 21.36a2 2 0 0 1 -1.26 2.94z" fill="#2488ff"/><path d="m47.37 25a5.992 5.992 0 0 1 -2.19 8.2l-6-10.4a6 6 0 0 1 8.19 2.2z" fill="#ffde55"/><path d="m22.32 47.61 6.47 11.21-2.59 1.5a4 4 0 0 1 -5.47-1.46l-5.5-9.53z" fill="#c6c5ca"/><path d="m28.79 58.82-2.59 1.5a4 4 0 0 1 -4 0l2.59-1.5-5.98-10.36 3.51-.85z" fill="#898890"/><path d="m9.002 42.004h3.996v7.993h-3.996z" fill="#ff6243" transform="matrix(.866 -.5 .5 .866 -21.544 11.68)"/><path d="m12.27 52.2-3.47 2a2 2 0 0 1 -2.73-.74l-4-6.92a2.018 2.018 0 0 1 .73-2.74l3.47-2z" fill="#2488ff"/><path d="m47.08 41.62-24.76 5.99-7.09 1.72-1.75-3.03 27.6-6.68a2 2 0 0 0 1.26-2.94l-10.67-18.5 1.17-1.23a2 2 0 0 1 3.18.37l12.32 21.36a2 2 0 0 1 -1.26 2.94z" fill="#005ece"/><path d="m12.27 52.2-3.47 2a2 2 0 0 1 -2.73-.74l-.86-1.49 3.06-1.77-4.14-7.17 2.14-1.23z" fill="#005ece"/><path d="m49.21 38.18-2.7-4.69a6.989 6.989 0 0 0 -6.92-11.98l-2.71-4.69a3 3 0 0 0 -4.77-.56l-22.6 23.72a1 1 0 0 0 -.15 1.19l-1.73 1-.5-.87a.99.99 0 0 0 -.6-.46.963.963 0 0 0 -.76.1l-3.47 2a3 3 0 0 0 -1.09 4.1l4 6.92a2.951 2.951 0 0 0 1.82 1.4 3 3 0 0 0 .78.11 2.933 2.933 0 0 0 1.49-.41l3.47-2a.987.987 0 0 0 .36-1.36l-.5-.87 1.73-1a.01.01 0 0 1 .01.01l5.5 9.52a4.974 4.974 0 0 0 3.03 2.33 5.273 5.273 0 0 0 1.3.17 5.037 5.037 0 0 0 2.5-.67l2.59-1.5a1 1 0 0 0 .37-1.37l-5.8-10.05 23.46-5.68a2.994 2.994 0 0 0 1.89-4.41zm-2.7-12.68a5 5 0 0 1 -1.01 6.24l-4.9-8.48a5 5 0 0 1 5.91 2.24zm-38.21 27.83a1.007 1.007 0 0 1 -.76.1.971.971 0 0 1 -.6-.47l-4-6.92a1.007 1.007 0 0 1 .36-1.37l2.6-1.5 5 8.66zm3.33-4.23-3-5.2 1.73-1 3 5.2zm15.8 9.35-1.73 1a3.007 3.007 0 0 1 -4.1-1.09l-4.83-8.37 5.06-1.23zm20.1-18.38a.994.994 0 0 1 -.68.58l-31.13 7.53-4.25-7.36 22.09-23.18a.993.993 0 0 1 .84-.31 1.008 1.008 0 0 1 .75.49l12.33 21.35a.988.988 0 0 1 .05.9z"/><path d="m42.326 10.608h8.485v2h-8.485z" transform="matrix(.259 -.966 .966 .259 23.304 53.585)"/><path d="m43.325 17.438h2.828v2h-2.828z" transform="matrix(.259 -.966 .966 .259 15.35 56.881)"/><path d="m52.167 19.5h6v2h-6z" transform="matrix(.866 -.5 .5 .866 -2.86 30.325)"/><path d="m48.904 22.25h3v2h-3z" transform="matrix(.866 -.5 .5 .866 -4.872 28.321)"/><path d="m57.569 28.15h2v8.485h-2z" transform="matrix(.259 -.966 .966 .259 12.122 80.582)"/><path d="m50.739 29.148h2v2.829h-2z" transform="matrix(.259 -.966 .966 .259 8.83 72.632)"/><path d="m4 39h2v-2h2v-2h-2v-2h-2v2h-2v2h2z"/><path d="m27 8h2v-2h2v-2h-2v-2h-2v2h-2v2h2z"/><path d="m35 13h2v-2h2v-2h-2v-2h-2v2h-2v2h2z"/><path d="m16 7h2v4h-2z"/><path d="m10 8.608h2v4h-2z" transform="matrix(.866 -.5 .5 .866 -3.83 6.921)"/><path d="m5.608 13h2v4h-2z" transform="matrix(.5 -.866 .866 .5 -9.686 13.222)"/><path d="m3 20h4v2h-4z"/><path d="m4.608 26h4v2h-4z" transform="matrix(.866 -.5 .5 .866 -12.613 6.919)"/><path d="m21 9.608h4v2h-4z" transform="matrix(.5 -.866 .866 .5 2.315 25.224)"/></g></svg>