<?xml version="1.0" encoding="utf-8"?>
<!-- Generator: Adobe Illustrator 22.1.0, SVG Export Plug-In . SVG Version: 6.00 Build 0)  -->
<svg version="1.1" id="Layer_1" xmlns="http://www.w3.org/2000/svg" xmlns:xlink="http://www.w3.org/1999/xlink" x="0px" y="0px"
	 viewBox="0 0 180.2 114.3" style="enable-background:new 0 0 180.2 114.3;" xml:space="preserve">
<style type="text/css">
	.st0{fill:none;}
	.st1{fill:#FF6900;}
</style>
<g>
	<rect class="st0" width="180.2" height="114.3"/>
	<path class="st1" d="M98.3,24.1l10.2,12.8l-3.6,16l-14.8,7.1l-14.8-7.1l-3.6-16l10.2-12.8H98.3z M90.1,18.1l-17.9,8.6l-4.4,19.4
		l12.4,15.6h19.9l12.4-15.6l-4.4-19.4L90.1,18.1z M92.5,40.7c1.8,0,2.8-0.1,3.3-0.6c0.3-0.3,0.4-0.6,0.4-1c0-0.4-0.1-0.8-0.4-1.1
		c-0.4-0.4-1.3-0.5-3.3-0.5h-7.3v3.2H92.5z M100.3,47.9L100.3,47.9L94.9,48l-5.2-4.3h-4.5V48h-3.9V34.4h11.2c4.1,0,5.5,0.5,6.5,1.5
		c0.9,0.9,1.1,2,1.1,3.1c0,1-0.2,2.2-1.1,3.1c-0.8,0.8-1.9,1.3-4.2,1.5L100.3,47.9z M49.3,96.1h23.5V92H54.5v-3h13.2v-3.9H54.5v-3
		h18.4V78H49.3V96.1z M143.8,92V78h-5.1v18.1h23.5V92H143.8z M124.7,78h-7.6l-9.9,18.1h5.5l2-3.7h12.2l2,3.7h5.7L124.7,78z
		 M116.7,88.6l4-7.6l4,7.6H116.7z M33,86.5c2.4,0,3.7-0.2,4.4-0.9c0.3-0.3,0.5-0.9,0.5-1.4c0-0.6-0.2-1-0.5-1.4
		c-0.6-0.6-1.7-0.7-4.4-0.7h-9.8v4.3H33z M43.5,96.1L43.5,96.1l-7.2,0.1l-7-5.8h-6v5.8h-5.1V78H33c5.5,0,7.3,0.6,8.6,2
		c1.1,1.1,1.4,2.7,1.4,4.1c0,1.4-0.3,2.9-1.5,4.2c-1,1-2.5,1.7-5.6,1.9L43.5,96.1z M87.9,92c-2.2,0-3.1-0.4-3.8-0.9
		c-1-0.7-1.6-2.3-1.6-4s0.6-3.3,1.6-4c0.7-0.5,1.7-0.9,3.8-0.9l14.8,0V78H87.9c-4.3,0-6,0.5-7.6,1.8c-2,1.7-3,3.9-3,7.2s1,5.6,3,7.2
		c1.6,1.4,3.3,1.8,7.6,1.8h14.8v-11H90.1V89h7.5v3H87.9z"/>
</g>
<path class="st1" d="M164.5,94.9h-0.4l0,0v1.2l0,0h-0.3l0,0v-1.2l0,0h-0.4l0,0v-0.2l0,0h1.2l0,0L164.5,94.9L164.5,94.9z"/>
<path class="st1" d="M166.4,96.1h-0.3l0,0v-0.8h0l-0.3,0.8l0,0h-0.2l0,0l-0.3-0.8h0v0.8l0,0h-0.3l0,0v-1.4l0,0h0.3l0,0l0.4,1h0
	l0.4-1l0,0h0.3l0,0L166.4,96.1L166.4,96.1z"/>
</svg>
