<svg id="Capa_1" enable-background="new 0 0 512 512" height="512" viewBox="0 0 512 512" width="512" xmlns="http://www.w3.org/2000/svg"><g><g><g><path d="m501.457 451.857h-109.311l46.997-376.745c.773-6.294-4.121-11.837-10.467-11.837h25.754c5.295 0 9.776 3.935 10.446 9.2l47.038 367.514c.803 6.294-4.1 11.868-10.457 11.868z" fill="#554e55"/><path d="m501.457 451.857h-42.835c6.346 0 11.25-5.573 10.446-11.868l-38.208-298.513 8.283-66.364c.773-6.294-4.121-11.837-10.467-11.837h25.754c5.305 0 9.776 3.935 10.436 9.189l47.048 367.525c.793 6.294-4.1 11.868-10.457 11.868z" fill="#433f43"/><path d="m458.551 125.909-43.7 350.372c-.659 5.274-5.141 9.23-10.456 9.23h-393.856c-6.336 0-11.239-5.553-10.456-11.837l43.37-347.766h415.098z" fill="#fc9744"/><path d="m458.561 125.909-43.71 350.372c-.649 5.274-5.141 9.241-10.446 9.241h-45.245c5.316 0 9.797-3.966 10.456-9.241l34.119-273.583c2.483-19.903-13.032-37.478-33.089-37.478h-332.087l4.904-39.311z" fill="#fb8627"/><path d="m464.892 75.11-7.626 61.1h-415.095l7.952-63.702c.653-5.277 5.129-9.237 10.448-9.237h393.861c6.341 0 11.239 5.551 10.46 11.839z" fill="#20b69f"/><path d="m464.892 75.11-7.626 61.1h-45.238l7.626-61.1c.779-6.288-4.118-11.839-10.448-11.839h45.227c6.34 0 11.238 5.551 10.459 11.839z" fill="#17998c"/><g><g fill="#e22334"><path d="m176.644 175.336c-32.746-.091-63.032 26.66-67.46 59.458-1.398 10.352 5.834 18.744 16.148 18.761 10.311.017 19.825-8.342 21.257-18.689 1.663-12.019 12.772-21.794 24.757-21.767 11.982.027 20.334 9.839 18.626 21.851-1.705 11.986-12.796 21.702-24.733 21.682-10.299-.017-19.809 8.325-21.235 18.616-1.424 10.272 5.748 18.594 16.014 18.605 11.898.013 20.201 9.674 18.517 21.513-1.68 11.815-12.684 21.402-24.537 21.396-11.856-.006-20.176-9.609-18.541-21.431 1.414-10.217-5.763-18.522-16.035-18.534l-17.708-.019c-10.28-.011-19.723 8.283-21.087 18.508-1.362 10.206 5.845 18.471 16.091 18.477l2.111.001c4.639 23.076 24.29 39.688 50.021 39.688 32.154 0 62.071-25.968 66.742-58.056 2.013-13.829-.99-26.579-7.635-36.651-1.34-2.03-1.06-4.694.628-6.446 9.764-10.137 16.645-23.11 18.707-37.277 4.765-32.741-17.931-59.595-50.648-59.686z"/><path d="m299.416 336.839c-2.102-.001-3.709-1.874-3.391-3.952l20.339-132.896c1.175-7.675-2.387-14.605-9.007-17.51-6.628-2.905-14.982-1.196-21.113 4.319l-25.044 22.528c-8.275 7.444-9.836 19.324-3.502 26.533 2.904 3.305 6.961 5.058 11.302 5.269 2.039.099 3.558 1.912 3.255 3.931l-13.3 88.832c-.252 1.681-1.696 2.925-3.396 2.924l-1.041-.001c-10.198-.005-19.682 8.215-21.178 18.345-1.493 10.111 5.541 18.294 15.706 18.294h44.752c10.15 0 19.643-8.173 21.209-18.273 1.569-10.118-5.409-18.338-15.591-18.343z"/></g></g><g><g><path d="m138.19 455.931c-5.972 0-11.548-2.439-15.299-6.691-3.696-4.191-5.334-9.646-4.615-15.36l1.625-12.899c1.422-11.282 11.647-20.12 23.279-20.12 5.972 0 11.548 2.439 15.299 6.691 3.696 4.191 5.334 9.646 4.615 15.36l-1.625 12.899c-1.421 11.282-11.646 20.12-23.279 20.12zm4.991-39.617c-3.791 0-7.504 3.083-7.947 6.599l-1.625 12.899c-.16 1.27.141 2.378.872 3.207.83.942 2.147 1.46 3.709 1.46 3.791 0 7.504-3.083 7.947-6.599l1.625-12.899c.16-1.27-.141-2.378-.872-3.207-.83-.942-2.147-1.46-3.709-1.46z" fill="#fee7c9"/></g><g><path d="m189.305 455.931c-5.975 0-11.553-2.441-15.306-6.695-3.695-4.19-5.334-9.643-4.615-15.354l1.625-12.903c1.422-11.281 11.65-20.118 23.287-20.118 5.924 0 11.273 2.285 15.059 6.434 1.236 1.348 2.268 2.865 3.057 4.497 1.857 3.842.248 8.462-3.593 10.319-3.842 1.859-8.462.25-10.319-3.593-.133-.277-.318-.544-.547-.794-.833-.914-2.128-1.41-3.656-1.41-3.795 0-7.512 3.082-7.955 6.597l-1.625 12.903c-.159 1.266.142 2.373.873 3.201.832.944 2.152 1.464 3.717 1.464 2.506 0 5.036-1.316 6.603-3.435 2.537-3.432 7.375-4.157 10.806-1.619 3.431 2.537 4.156 7.375 1.619 10.806-4.494 6.074-11.607 9.7-19.03 9.7z" fill="#fee7c9"/></g><g><path d="m250.985 416.314h-25.026c-4.267 0-7.726-3.459-7.726-7.726s3.459-7.726 7.726-7.726h25.026c4.267 0 7.726 3.459 7.726 7.726s-3.458 7.726-7.726 7.726z" fill="#fee7c9"/></g><g><path d="m233.492 455.932c-.322 0-.647-.02-.975-.061-4.233-.533-7.233-4.398-6.7-8.632l4.828-38.333c.534-4.233 4.397-7.237 8.632-6.7 4.233.533 7.233 4.398 6.7 8.632l-4.828 38.333c-.493 3.905-3.82 6.761-7.657 6.761z" fill="#fee7c9"/></g></g></g><g><g><g><path d="m403.669 190.802h-16.006c-4.268 0-7.726-3.459-7.726-7.726s3.459-7.726 7.726-7.726h16.006c4.268 0 7.726 3.459 7.726 7.726s-3.459 7.726-7.726 7.726z" fill="#fee7c9"/></g></g><g><g><path d="m400.278 219.312h-16.006c-4.268 0-7.726-3.459-7.726-7.726 0-4.268 3.459-7.726 7.726-7.726h16.006c4.268 0 7.726 3.459 7.726 7.726s-3.459 7.726-7.726 7.726z" fill="#fee7c9"/></g></g><g><g><path d="m396.887 247.823h-16.006c-4.268 0-7.726-3.459-7.726-7.726s3.459-7.726 7.726-7.726h16.006c4.268 0 7.726 3.459 7.726 7.726s-3.458 7.726-7.726 7.726z" fill="#fee7c9"/></g></g><g><g><path d="m393.496 276.333h-16.006c-4.268 0-7.726-3.459-7.726-7.726s3.459-7.726 7.726-7.726h16.006c4.268 0 7.726 3.459 7.726 7.726s-3.458 7.726-7.726 7.726z" fill="#fee7c9"/></g></g><g><g><path d="m390.105 304.843h-16.006c-4.268 0-7.726-3.459-7.726-7.726s3.459-7.726 7.726-7.726h16.006c4.268 0 7.726 3.459 7.726 7.726s-3.459 7.726-7.726 7.726z" fill="#fee7c9"/></g></g><g><g><path d="m386.713 333.353h-16.006c-4.268 0-7.726-3.459-7.726-7.726s3.459-7.726 7.726-7.726h16.006c4.268 0 7.726 3.459 7.726 7.726s-3.458 7.726-7.726 7.726z" fill="#fee7c9"/></g></g><g><g><path d="m383.322 361.863h-16.006c-4.268 0-7.726-3.459-7.726-7.726 0-4.268 3.459-7.726 7.726-7.726h16.006c4.268 0 7.726 3.459 7.726 7.726s-3.458 7.726-7.726 7.726z" fill="#fee7c9"/></g></g><g><g><path d="m379.932 390.373h-16.006c-4.268 0-7.726-3.459-7.726-7.726 0-4.268 3.459-7.726 7.726-7.726h16.006c4.268 0 7.726 3.459 7.726 7.726s-3.459 7.726-7.726 7.726z" fill="#fee7c9"/></g></g><g><g><path d="m376.54 418.884h-16.006c-4.268 0-7.726-3.459-7.726-7.726s3.459-7.726 7.726-7.726h16.006c4.268 0 7.726 3.459 7.726 7.726s-3.458 7.726-7.726 7.726z" fill="#fee7c9"/></g></g><g><g><path d="m373.149 447.394h-16.006c-4.268 0-7.726-3.459-7.726-7.726s3.459-7.726 7.726-7.726h16.006c4.268 0 7.726 3.459 7.726 7.726s-3.458 7.726-7.726 7.726z" fill="#fee7c9"/></g></g></g></g><g><g><path d="m96.42 100.064c-15.855 0-28.274-16.161-28.274-36.793s12.42-36.794 28.274-36.794c15.855 0 28.275 16.162 28.275 36.794 0 4.268-3.459 7.726-7.726 7.726s-7.726-3.459-7.726-7.726c0-11.368-5.991-21.341-12.822-21.341-6.83 0-12.821 9.973-12.821 21.341s5.991 21.34 12.821 21.34c4.267 0 7.726 3.459 7.726 7.726s-3.46 7.727-7.727 7.727z" fill="#fee7c9"/></g><g><path d="m137.516 100.064c-15.855 0-28.274-16.161-28.274-36.793s12.42-36.794 28.274-36.794c15.855 0 28.275 16.162 28.275 36.794 0 4.268-3.459 7.726-7.726 7.726s-7.726-3.459-7.726-7.726c0-11.368-5.991-21.341-12.822-21.341-6.83 0-12.821 9.973-12.821 21.341s5.991 21.34 12.821 21.34c4.267 0 7.726 3.459 7.726 7.726s-3.46 7.727-7.727 7.727z" fill="#ffd496"/></g><g><path d="m178.612 100.064c-15.855 0-28.274-16.161-28.274-36.793s12.42-36.794 28.274-36.794c15.855 0 28.275 16.162 28.275 36.794 0 4.268-3.459 7.726-7.726 7.726s-7.726-3.459-7.726-7.726c0-11.368-5.991-21.341-12.822-21.341-6.83 0-12.821 9.973-12.821 21.341s5.991 21.34 12.821 21.34c4.267 0 7.726 3.459 7.726 7.726s-3.46 7.727-7.727 7.727z" fill="#fee7c9"/></g><g><path d="m219.708 100.064c-15.855 0-28.274-16.161-28.274-36.793s12.42-36.794 28.274-36.794c15.855 0 28.275 16.162 28.275 36.794 0 4.268-3.459 7.726-7.726 7.726s-7.726-3.459-7.726-7.726c0-11.368-5.991-21.341-12.822-21.341-6.83 0-12.821 9.973-12.821 21.341s5.991 21.34 12.821 21.34c4.267 0 7.726 3.459 7.726 7.726s-3.46 7.727-7.727 7.727z" fill="#ffd496"/></g><g><path d="m260.804 100.064c-15.855 0-28.274-16.161-28.274-36.793s12.42-36.794 28.274-36.794c15.855 0 28.275 16.162 28.275 36.794 0 4.268-3.459 7.726-7.726 7.726s-7.726-3.459-7.726-7.726c0-11.368-5.992-21.341-12.822-21.341s-12.821 9.973-12.821 21.341 5.991 21.34 12.821 21.34c4.268 0 7.726 3.459 7.726 7.726s-3.46 7.727-7.727 7.727z" fill="#fee7c9"/></g><g><path d="m301.9 100.064c-15.855 0-28.275-16.161-28.275-36.793s12.419-36.794 28.275-36.794c15.854 0 28.274 16.162 28.274 36.794 0 4.268-3.459 7.726-7.726 7.726s-7.726-3.459-7.726-7.726c0-11.368-5.991-21.341-12.821-21.341s-12.822 9.973-12.822 21.341 5.992 21.34 12.822 21.34c4.268 0 7.726 3.459 7.726 7.726s-3.459 7.727-7.727 7.727z" fill="#ffd496"/></g><g><path d="m342.996 100.064c-15.855 0-28.275-16.161-28.275-36.793s12.42-36.794 28.275-36.794 28.275 16.162 28.275 36.794c0 4.268-3.459 7.726-7.726 7.726-4.268 0-7.726-3.459-7.726-7.726 0-11.368-5.992-21.341-12.822-21.341s-12.822 9.973-12.822 21.341 5.992 21.34 12.822 21.34c4.268 0 7.726 3.459 7.726 7.726s-3.459 7.727-7.727 7.727z" fill="#fee7c9"/></g><g><path d="m384.093 100.064c-15.855 0-28.275-16.161-28.275-36.793s12.42-36.794 28.275-36.794c15.854 0 28.274 16.162 28.274 36.794 0 4.268-3.459 7.726-7.726 7.726s-7.726-3.459-7.726-7.726c0-11.368-5.991-21.341-12.821-21.341s-12.822 9.973-12.822 21.341 5.992 21.34 12.822 21.34c4.268 0 7.726 3.459 7.726 7.726s-3.46 7.727-7.727 7.727z" fill="#ffd496"/></g><g><path d="m438.01 63.271c0-11.368-5.992-21.341-12.822-21.341s-12.822 9.973-12.822 21.341 5.992 21.34 12.822 21.34c4.268 0 7.726 3.459 7.726 7.726s-3.459 7.726-7.726 7.726c-15.855 0-28.275-16.161-28.275-36.793s12.42-36.794 28.275-36.794 28.275 16.162 28.275 36.794h-15.453z" fill="#fee7c9"/></g></g></g></svg>